<?xml version="1.0" encoding="utf-8"?>
<svg version="1.1" id="Layer_1" x="0px" y="0px" viewBox="0 0 256 256" style="enable-background:new 0 0 256 256;" xmlns="http://www.w3.org/2000/svg">
  <style type="text/css">
	.st0{fill:none;}
	.st1{fill:none;stroke:#FF0000;stroke-miterlimit:10;}
</style>
  <g id="Layer_2_5_">
    <g id="Layer_1-2_4_">
      <rect x="0" class="st0" width="256" height="256"/>
      <path d="M92.6,235l8.7-7.9c1-0.7,1.7-1.9,1.8-3.2c0-1.2-0.9-2.2-2.1-2.2c-0.1,0-0.2,0-0.3,0c-1.3,0-2.5,1.1-2.5,2.4 c0,0,0,0.1,0,0.1h-5.5c0-3.8,2.7-7.3,8.1-7.3c5,0,8.2,2.6,8.2,6.7c0,3.2-1.7,5.1-4,7l-3.5,2.9h7.7v4.9H92.6V235z"/>
      <path d="M110.9,227.9c0-6.1,4.5-11,11.2-11c6.8,0,11.2,4.9,11.2,11s-4.5,11-11.2,11S110.9,234,110.9,227.9z M127.7,227.9 c-0.1-3.1-2.7-5.5-5.7-5.4c-3.1,0.1-5.5,2.7-5.4,5.7c0.1,3,2.6,5.4,5.6,5.4c3,0.1,5.5-2.3,5.6-5.3 C127.7,228.2,127.7,228,127.7,227.9z"/>
      <path d="M135,235l8.7-7.9c1-0.7,1.7-1.9,1.8-3.2c0-1.2-0.9-2.2-2.1-2.2c-0.1,0-0.2,0-0.4,0c-1.3,0-2.5,1.1-2.5,2.4 c0,0,0,0.1,0,0.1h-5.5c0-3.8,2.7-7.3,8.1-7.3c5,0,8.2,2.6,8.2,6.7c0,3.2-1.7,5.1-4,7l-3.5,2.9h7.7v4.9H135V235z"/>
      <path d="M128,88.2c-31.8,0-57.6,25.8-57.6,57.6s25.8,57.6,57.6,57.6s57.6-25.8,57.6-57.6S159.8,88.2,128,88.2L128,88.2z M128,196.9c-28.3,0-51.2-22.9-51.2-51.2S99.7,94.6,128,94.6s51.2,22.9,51.2,51.2S156.3,196.9,128,196.9L128,196.9z M115.2,149.7 c0,3.9-3.1,7.1-7,7.1s-7.1-3.1-7.1-7c0-3.9,3.1-7.1,7-7.1c0,0,0,0,0,0C112,142.7,115.2,145.8,115.2,149.7L115.2,149.7z M154.9,149.7c0,3.9-3.1,7-7,7s-7-3.1-7-7s3.1-7,7-7C151.8,142.7,154.9,145.8,154.9,149.7L154.9,149.7z M161.3,135l6.5-7.1h-14.4 c-15.3-10.4-35.4-10.4-50.7,0H88.2l6.5,7.1c-8.1,7.4-8.7,19.9-1.3,28.1c7.4,8.1,19.9,8.7,28.1,1.3c0.1,0,0.1-0.1,0.2-0.1l6.4,6.9 l6.4-6.9c8.1,7.4,20.7,6.9,28.1-1.2C169.9,155,169.3,142.4,161.3,135L161.3,135z M108.1,163.1c-7.4,0-13.5-6-13.5-13.4 c0-7.4,6-13.5,13.4-13.5c7.4,0,13.5,6,13.5,13.4c0,0,0,0,0,0C121.6,157.1,115.5,163.1,108.1,163.1L108.1,163.1z M128,149.3 c0-8.9-6.4-16.4-14.9-19.7c9.5-4,20.3-4,29.8,0C134.4,132.8,128,140.4,128,149.3z M147.9,163.1c-7.4,0-13.5-6-13.5-13.4 c0-7.4,6-13.5,13.4-13.5c7.4,0,13.5,6,13.5,13.4c0,0,0,0,0,0C161.3,157.1,155.3,163.1,147.9,163.1z"/>
      <path d="M82.4,191.9c-2.6-5.6-6.3-10.6-10.8-14.7c-5-4.5-11.2-7.6-17.8-8.8c3,5.9,7,11.3,11.9,15.8 C74.1,192.1,82.4,191.9,82.4,191.9z"/>
      <path d="M102.3,202.8c-3.4-2.9-7.2-5.3-11.4-6.8c-4.6-1.7-9.6-2.2-14.4-1.5c3.7,3.1,8,5.5,12.5,7.2 C96.8,204.8,102.3,202.8,102.3,202.8z"/>
      <path d="M121.6,206.7c-3.4-1.2-6.9-1.7-10.5-1.5c-3.9,0.2-7.7,1.4-11,3.6c3.7,1.2,7.5,1.7,11.4,1.5 C118.2,210.1,121.6,206.7,121.6,206.7z"/>
      <path d="M73.7,174.2c-1.4-6-3.9-11.7-7.6-16.7c-3.9-5.5-9.3-9.7-15.6-12.2c1.7,6.4,4.6,12.5,8.4,17.9 C65.6,172.7,73.7,174.2,73.7,174.2z"/>
      <path d="M66,150.4c0.9-6.2,0.5-12.5-1-18.5c-1.7-6.5-5.1-12.5-10-17.1c-0.7,6.7-0.2,13.5,1.4,20C59,146.1,66,150.4,66,150.4z"/>
      <path d="M173.6,191.9c2.6-5.6,6.3-10.6,10.8-14.7c5-4.5,11.2-7.6,17.8-8.8c-3,5.9-7,11.3-11.9,15.8 C181.9,192.1,173.6,191.9,173.6,191.9z"/>
      <path d="M153.7,202.8c3.4-2.9,7.2-5.3,11.4-6.8c4.6-1.7,9.6-2.2,14.4-1.5c-3.7,3.1-8,5.5-12.5,7.2 C159.2,204.8,153.7,202.8,153.7,202.8z"/>
      <path d="M134.4,206.7c3.4-1.2,6.9-1.7,10.5-1.5c3.9,0.2,7.7,1.4,11,3.6c-3.7,1.2-7.5,1.7-11.4,1.5 C137.8,210.1,134.4,206.7,134.4,206.7z"/>
      <path d="M182.3,174.2c1.4-6,3.9-11.7,7.6-16.7c3.9-5.5,9.3-9.7,15.6-12.2c-1.7,6.4-4.6,12.5-8.4,17.9 C190.4,172.7,182.3,174.2,182.3,174.2z"/>
      <path d="M190,150.4c-0.9-6.2-0.5-12.5,1-18.5c1.7-6.5,5.1-12.5,10-17.1c0.7,6.7,0.2,13.5-1.4,20C197,146.1,190,150.4,190,150.4z"/>
      <circle cx="128" cy="209.5" r="3.2"/>
    </g>
  </g>
  <path d="M158.4,222.7h-5v-5.2h10.6v20.9h-5.6L158.4,222.7z"/>
  <g>
    <rect x="-1556.9" y="-311" class="st1" width="115.2" height="267.9"/>
    <line class="st1" x1="-1535.6" y1="-106.5" x2="-1556.9" y2="-106.5"/>
    <line class="st1" x1="-1441.7" y1="-106.5" x2="-1463" y2="-106.5"/>
  </g>
</svg>